<svg xmlns="http://www.w3.org/2000/svg" xmlns:xlink="http://www.w3.org/1999/xlink" width="156" height="45" viewBox="0 0 156 45">
    <defs>
        <linearGradient id="a" x1="91.107%" x2="8.581%" y1="10.82%" y2="84.87%">
            <stop offset="0%" stop-color="#00F5CA"/>
            <stop offset="100%" stop-color="#4ED4FA"/>
        </linearGradient>
        <path id="b" d="M42.999 22.517c-.02-.464-.036-.929-.059-1.393a18.626 18.626 0 0 0-.44-3.271c-.31-1.347-.797-2.635-1.368-3.893-1.51-3.32-3.768-6.037-6.724-8.143-2.618-1.865-5.514-3.123-8.724-3.582a20.66 20.66 0 0 0-2.258-.207c-1.29-.041-2.579-.016-3.858.175-.636.094-1.28.17-1.899.335-3.505.937-6.64 2.558-9.27 5.092-1.001.965-1.93 1.994-2.721 3.139A21.612 21.612 0 0 0 3.5 14.794c-.408.984-.766 1.988-1 3.027-.33 1.466-.475 2.958-.492 4.46a20.408 20.408 0 0 0 .177 3.03c.096.688.185 1.385.365 2.055.935 3.491 2.556 6.612 5.079 9.234.943.98 1.938 1.906 3.065 2.669 2.621 1.777 5.454 3.055 8.62 3.49.733.101 1.473.173 2.212.207 1.176.054 2.354.036 3.523-.124.719-.099 1.445-.18 2.147-.352a21.047 21.047 0 0 0 7.207-3.294c1.78-1.262 3.305-2.799 4.614-4.544.875-1.167 1.58-2.438 2.183-3.766.54-1.188.995-2.41 1.287-3.684.353-1.54.498-3.105.512-4.685zM45 22.502C44.977 35.066 34.769 45.05 22.405 45 10.06 44.949-.001 34.915 0 22.496 0 10.063 10.11-.035 22.569 0 34.852.035 44.978 9.981 45 22.502zm-22.906-6.159a2.485 2.485 0 0 0 2.469 2.509 2.5 2.5 0 1 0 .04-4.998 2.486 2.486 0 0 0-2.509 2.489zm14.989 7.5h-5.606c-.026.083-.05.152-.069.222a19.948 19.948 0 0 1-5.261 9.022 19.792 19.792 0 0 1-4.084 3.114c-.097.056-.186.096-.313.078-1.798-.252-3.505-.791-5.093-1.668-4.14-2.288-6.725-5.756-7.76-10.37-.133-.59-.181-1.199-.272-1.799a.206.206 0 0 1 .068-.2c.099-.092.192-.19.287-.286.986-.986 1.971-1.973 2.96-2.956a.441.441 0 0 0 .142-.334 10.013 10.013 0 0 1 7.533-9.512 9.394 9.394 0 0 1 3.299-.272c3.323.331 5.886 1.92 7.693 4.729l.15.24h6.26c.01.023.014.03.015.037 0 .006 0 .016-.003.02l-4.955 4.92c.229.237.435.439.64.644l.62.62.62.62.62.621.62.621.62.62.62.621.649.649z"/>
        <linearGradient id="c" x1="91.107%" x2="8.581%" y1="49.399%" y2="50.535%">
            <stop offset="0%" stop-color="#00F5CA"/>
            <stop offset="100%" stop-color="#4ED4FA"/>
        </linearGradient>
        <path id="d" d="M57.364 29c-1.19 0-2.265-.246-3.228-.738-.963-.492-1.726-1.223-2.29-2.194-.564-.972-.846-2.16-.846-3.568 0-1.07.172-2.011.515-2.82a5.807 5.807 0 0 1 1.407-2.036 5.892 5.892 0 0 1 2.06-1.233A7.4 7.4 0 0 1 57.456 16c.699 0 1.343.08 1.931.243.589.162 1.14.386 1.655.672l.074 2.298h-.184l-.92-1.495a4.398 4.398 0 0 0-.404-.644 1.416 1.416 0 0 0-.552-.439 2.857 2.857 0 0 0-.543-.196 2.883 2.883 0 0 0-.67-.065c-.712 0-1.359.193-1.941.579-.583.386-1.049 1.024-1.398 1.914-.35.89-.524 2.108-.524 3.652 0 1.531.165 2.742.496 3.633.331.89.782 1.525 1.352 1.905.57.38 1.21.57 1.922.57.393 0 .705-.029.938-.085a3.5 3.5 0 0 0 .7-.252c.232-.1.41-.246.532-.439.123-.193.233-.401.332-.625l.809-1.83h.184l-.055 2.67a8.373 8.373 0 0 1-1.73.673 7.935 7.935 0 0 1-2.096.261zm10.213-.336v-.187l.368-.15c.245-.087.408-.205.488-.354.08-.15.12-.343.12-.58v-9.768c0-.249-.04-.448-.12-.598-.08-.15-.243-.267-.488-.355l-.368-.149v-.187h4.672v.187l-.313.13c-.233.088-.392.203-.478.346-.086.143-.129.34-.129.589v4.538h4.396v-4.538c0-.25-.04-.446-.12-.589-.079-.143-.241-.258-.487-.345l-.33-.131v-.187h4.69v.187l-.368.15c-.233.087-.393.205-.479.354-.086.15-.128.349-.128.598v9.769c0 .236.042.43.128.579.086.15.246.267.479.355l.367.149v.187h-4.69v-.187l.331-.112c.246-.1.408-.221.488-.364.08-.143.12-.34.12-.589V22.5h-4.397v4.912c0 .461.203.779.607.953l.313.112v.187h-4.672zm18.16 0v-.187l.367-.15c.245-.087.408-.205.488-.354.08-.15.12-.349.12-.598v-9.75c0-.249-.038-.448-.111-.598-.074-.15-.24-.267-.497-.355l-.368-.149v-.187h4.727v.187l-.368.15c-.245.087-.407.205-.487.354-.08.15-.12.349-.12.598v9.75c0 .249.04.445.12.588.08.144.242.265.487.365l.368.149v.187h-4.727zm10.985 0v-.187l.387-.13c.245-.088.404-.203.478-.346.073-.143.11-.346.11-.607v-9.769c0-.249-.034-.445-.101-.588-.068-.144-.218-.259-.45-.346l-.424-.168v-.187h5.26c1.448 0 2.557.277 3.33.831.772.555 1.158 1.323 1.158 2.307 0 .548-.202 1.096-.607 1.644-.404.548-1.042.971-1.912 1.27l2.556 5.155c.11.212.236.383.377.514.141.13.328.246.561.345l.24.094v.168h-3.293l-2.722-5.884h-1.25v4.614c0 .236.036.43.11.579.073.15.226.261.46.336l.44.168v.187h-4.708zm3.697-6.257h.883c.883 0 1.52-.24 1.913-.72.392-.479.588-1.192.588-2.138 0-.959-.183-1.672-.551-2.139-.368-.467-.987-.7-1.858-.7h-.975v5.697zm13.304 6.257v-.187l.367-.13c.246-.075.408-.188.488-.337.08-.15.12-.349.12-.598v-9.787c0-.249-.043-.448-.13-.598-.085-.15-.25-.267-.496-.355l-.35-.149v-.187h4.47c1.827 0 3.148.34 3.964 1.018.815.679 1.223 1.572 1.223 2.68 0 .71-.169 1.36-.506 1.952-.337.592-.892 1.062-1.665 1.41-.772.35-1.814.524-3.126.524h-.626v3.436c0 .486.24.803.718.953l.551.168v.187h-5.002zm3.733-5.118h.7c.6 0 1.09-.1 1.47-.299.38-.2.663-.548.847-1.046.184-.498.276-1.189.276-2.073 0-.897-.102-1.594-.304-2.092s-.5-.844-.892-1.037c-.392-.193-.883-.29-1.471-.29h-.626v6.837zm11.924 5.118v-.187l.423-.168c.209-.087.353-.202.433-.346.08-.143.12-.339.12-.588v-9.75c0-.249-.035-.445-.102-.588-.068-.144-.218-.259-.45-.346l-.424-.168v-.187h8.81l.11 2.877h-.183l-.791-1.756a2.403 2.403 0 0 0-.35-.542c-.122-.137-.306-.205-.551-.205h-3.311v5.398h1.968c.245 0 .432-.066.561-.196.129-.131.242-.309.34-.533l.368-.747h.184v3.362h-.184l-.368-.784a2.194 2.194 0 0 0-.35-.533c-.122-.13-.306-.196-.551-.196h-1.968v5.81h3.715c.246 0 .436-.066.57-.197.135-.13.246-.314.332-.55l.754-1.757h.184l-.11 2.877h-9.179zm15.658 0v-.187l.386-.13c.245-.088.405-.203.478-.346.074-.143.11-.346.11-.607v-9.769c0-.249-.033-.445-.1-.588-.068-.144-.218-.259-.451-.346l-.423-.168v-.187h5.26c1.447 0 2.557.277 3.33.831.772.555 1.158 1.323 1.158 2.307 0 .548-.202 1.096-.607 1.644-.405.548-1.042.971-1.913 1.27l2.557 5.155c.11.212.236.383.377.514.14.13.328.246.56.345l.24.094v.168h-3.292l-2.722-5.884h-1.251v4.614c0 .236.037.43.11.579.074.15.227.261.46.336l.441.168v.187h-4.708zm3.697-6.257h.883c.883 0 1.52-.24 1.913-.72.392-.479.588-1.192.588-2.138 0-.959-.184-1.672-.552-2.139-.368-.467-.987-.7-1.857-.7h-.975v5.697z"/>
    </defs>
    <g fill="none" fill-rule="evenodd">
        <g>
            <use fill="url(#a)" xlink:href="#b"/>
            <use fill="#252A41" xlink:href="#b"/>
        </g>
        <g>
            <use fill="url(#c)" xlink:href="#d"/>
            <use fill="#252A41" xlink:href="#d"/>
        </g>
    </g>
</svg>
